<svg version="1" xmlns="http://www.w3.org/2000/svg" width="933.333" height="933.333" viewBox="0 0 700.000000 700.000000"><path d="M327.8.4c-.1.2-3.9.6-8.3 1-11.4.8-27 3.1-42 6.1-32.2 6.4-75.9 23.5-105.1 41.1-14.7 8.8-35.3 23.2-44.8 31.4-55.7 47.4-92.6 103-113 170-5.1 16.8-10.7 43.9-12.2 59-.3 3-.7 7.1-.9 9-.3 1.9-.7 9.9-1 17.7L-.1 350H350l42.2-42.3c23.3-23.2 42.8-42.9 43.5-43.7 1-1.3-19.4-1.5-166.1-1.5H102.3l2.2-6c7.1-18.7 17.1-37.8 29.3-55.5 32.1-47 80.4-83.1 134.1-100.4 41.9-13.5 84.3-16.5 128.6-9 1.7.2 3.7.7 4.5.9.8.2 3.1.7 5 1 12.4 2.1 37.4 10.4 53 17.6 9.6 4.4 25.8 13.2 34 18.4 4.6 2.9 19.1 13.4 20 14.4.3.3 2.3 2 4.5 3.6 4.3 3.2 26.9 25.4 32.6 32 17.6 20.6 33.5 47.2 43.9 73.5 3.6 9 9.5 27.4 10.6 32.9.3 1.2 1.1 5.1 1.9 8.5 1.5 6.7 2.2 10.1 2.9 16.1.3 2.2.8 4.9 1 6 2.4 12 2.5 46.3.1 66-2.7 21.8-9.9 49.6-17.2 66.5-.9 1.9-2.4 5.5-3.5 8-23.1 53.3-67.9 100.5-120.3 126.8-17.7 8.9-38 16.6-55 20.8-1.6.4-3.4.8-4 1-7 1.8-25.2 4.7-38.5 6-12.9 1.3-46 .6-54.5-1.1-1.1-.2-3.8-.6-6-.9-23.3-2.8-54.8-12.7-78.3-24.5-13.2-6.6-35.4-20-38.2-23.1-.3-.3-3.4-2.7-7-5.5-8.4-6.4-13.5-11-24.5-22l-9-9 10.5-.5 10.5-.5 43.3-43.3c23.7-23.7 43.1-43.3 43-43.3-.2-.1-59.1-.3-131-.4L0 437.1v131C0 640.1.2 699 .5 699s20-19.4 43.7-43.2l43.3-43.2.1-15.6c.1-8.5.2-15.6.3-15.8 0-.1 1.6 1.4 3.3 3.5 4.2 4.9 18.7 19.3 26 25.8 8.8 8 12.6 11.1 22.3 18.4 2.2 1.7 4.5 3.5 5 3.9 2.9 2.4 23.1 15.5 30.5 19.8 31.7 18.6 69.1 33 103.5 40 27.7 5.6 41.6 6.9 72 6.9 25.8 0 35.1-.7 58.3-4.6 23.6-3.9 54.1-12.7 76.2-22.1 8.5-3.6 33.4-15.9 38.5-19.1 23.2-14.3 39.2-25.4 49.7-34.4 10-8.7 13.2-11.6 22.6-20.8 5.6-5.5 13.3-13.6 17-17.9 3.7-4.3 7.2-8.4 7.7-9 .6-.6 2.9-3.6 5.3-6.6 2.3-3 4.6-6 5.1-6.7 3.3-3.9 16.7-24.4 21.6-32.8 22.9-39.8 39.9-88.9 44-127.5.4-3 .8-6.1 1-6.8 2.6-7.9 2.6-62.7 0-83.2-.7-6.2-1.5-11.7-2-14-.3-1.4-.8-4.1-1.1-6-5.3-34-21.3-77.6-41.2-112.5-21.5-37.7-54.9-75.8-90.1-102.9-7.6-5.9-30.6-21.6-31.6-21.6-.2 0-3-1.6-6.1-3.6-8-5.1-31-16.5-43.4-21.4-25.7-10.3-53-18-76.5-21.6-2.7-.4-5.2-.8-5.5-.9-.3-.1-4.1-.5-8.5-1-4.4-.4-8.9-1-10-1.2C379 .9 328.3 0 327.8.4z"/></svg>